<svg xmlns="http://www.w3.org/2000/svg" width="383" height="287" fill="none" viewBox="0 0 383 287"><rect width="348" height="257.157" x="35" y="29" fill="#EBEBEB" rx="8"/><g filter="url(#filter0_d)"><rect width="348" height="257.157" x="13" y="9" fill="#fff" rx="8"/></g><path fill="#B9B9B9" d="M13 20.1807C13 14.0058 18.0058 9 24.1807 9H349.819C355.994 9 361 14.0058 361 20.1807V35H13V20.1807Z"/><rect width="286" height="80" x="44" y="58" fill="#D8D8D8" opacity=".2" rx="8"/><rect width="120" height="89" x="209" y="158" fill="#D8D8D8" opacity=".2" rx="8"/><rect width="120" height="7" x="54" y="174" fill="#D8D8D8" opacity=".2" rx="3.5"/><rect width="120" height="7" x="54" y="191" fill="#D8D8D8" opacity=".2" rx="3.5"/><rect width="120" height="7" x="54" y="208" fill="#D8D8D8" opacity=".2" rx="3.5"/><rect width="120" height="7" x="54" y="225" fill="#D8D8D8" opacity=".2" rx="3.5"/><circle cx="29.5" cy="22.5" r="5.5" fill="#E64B60"/><circle cx="48.5" cy="22.5" r="5.5" fill="#FFBF00"/><circle cx="67.5" cy="22.5" r="5.5" fill="#20BCA4"/><path fill="#002D74" d="M186.946 74.167L165.333 86.6912V111.74L186.946 124.264L208.558 111.74V86.6912L186.946 74.167ZM202.086 108.056L186.946 116.897L171.744 108.056V90.4362L186.946 81.5956L202.148 90.4362V108.056H202.086Z"/><g style="mix-blend-mode:multiply"><path style="mix-blend-mode:multiply" fill="url(#paint0_linear)" d="M186.946 81.5956V74.167L165.333 86.6912V111.74L186.946 124.264V116.897L171.744 108.056V90.4362L186.946 81.5956Z"/></g><g style="mix-blend-mode:multiply"><path style="mix-blend-mode:multiply" fill="url(#paint1_linear)" d="M186.946 116.897V124.325L208.558 111.801V86.6912L186.946 74.167V81.5956L202.148 90.4362V108.056L186.946 116.897Z"/></g><path fill="#002D74" d="M197.02 105.107L186.946 110.94L176.812 105.107V93.3812L186.946 87.5488L197.02 93.3812V105.107Z"/><defs><filter id="filter0_d" width="374" height="283.157" x="0" y="0" color-interpolation-filters="sRGB" filterUnits="userSpaceOnUse"><feFlood flood-opacity="0" result="BackgroundImageFix"/><feColorMatrix in="SourceAlpha" type="matrix" values="0 0 0 0 0 0 0 0 0 0 0 0 0 0 0 0 0 0 127 0"/><feMorphology in="SourceAlpha" operator="dilate" radius="3" result="effect1_dropShadow"/><feOffset dy="4"/><feGaussianBlur stdDeviation="5"/><feColorMatrix type="matrix" values="0 0 0 0 0 0 0 0 0 0 0 0 0 0 0 0 0 0 0.05 0"/><feBlend in2="BackgroundImageFix" mode="normal" result="effect1_dropShadow"/><feBlend in="SourceGraphic" in2="effect1_dropShadow" mode="normal" result="shape"/></filter><linearGradient id="paint0_linear" x1="176.127" x2="176.127" y1="124.307" y2="74.167" gradientUnits="userSpaceOnUse"><stop stop-color="#002D74" stop-opacity="0"/><stop offset="1" stop-color="#002D74"/></linearGradient><linearGradient id="paint1_linear" x1="197.715" x2="197.715" y1="124.307" y2="74.167" gradientUnits="userSpaceOnUse"><stop stop-color="#002D74"/><stop offset="1" stop-color="#002D74" stop-opacity="0"/></linearGradient></defs></svg>