<svg xmlns="http://www.w3.org/2000/svg" width="71" height="82" fill="none" viewBox="0 0 71 82"><g clip-path="url(#clip0)"><path fill="#002D74" d="M35.4 0L0 20.4V61.2L35.4 81.6L70.8 61.2V20.4L35.4 0ZM60.2 55.2L35.4 69.6L10.5 55.2V26.5L35.4 12.1L60.3 26.5V55.2H60.2Z"/><g style="mix-blend-mode:multiply"><path fill="url(#paint0_linear)" d="M35.4 12.1V0L0 20.4V61.2L35.4 81.6V69.6L10.5 55.2V26.5L35.4 12.1Z"/></g><g style="mix-blend-mode:multiply"><path fill="url(#paint1_linear)" d="M35.4004 69.6V81.7L70.8004 61.3V20.4L35.4004 0V12.1L60.3004 26.5V55.2L35.4004 69.6Z"/></g><path fill="#002D74" d="M51.9008 50.4001L35.4008 59.9001L18.8008 50.4001V31.3L35.4008 21.8L51.9008 31.3V50.4001Z"/></g><defs><linearGradient id="paint0_linear" x1="17.68" x2="17.68" y1="81.67" y2="0" gradientUnits="userSpaceOnUse"><stop stop-color="#002D74" stop-opacity="0"/><stop offset="1" stop-color="#002D74"/></linearGradient><linearGradient id="paint1_linear" x1="53.04" x2="53.04" y1="81.67" y2="0" gradientUnits="userSpaceOnUse"><stop stop-color="#002D74"/><stop offset="1" stop-color="#002D74" stop-opacity="0"/></linearGradient><clipPath id="clip0"><rect width="70.7" height="81.7" fill="#fff"/></clipPath></defs></svg>